<svg width="24" height="25" viewBox="0 0 24 25" fill="none" xmlns="http://www.w3.org/2000/svg">
    <path d="M23.6408 14.9047C22.0379 21.334 15.5261 25.2468 9.09602 23.6435C2.66858 22.0406 -1.24421 15.5284 0.359461 9.09944C1.96163 2.66938 8.47345 -1.24378 14.9016 0.359137C21.3313 1.96206 25.2437 8.475 23.6408 14.9047Z" fill="#F7931A"/>
    <path d="M17.2918 10.2917C17.5307 8.69474 16.3148 7.83627 14.6523 7.26359L15.1916 5.10036L13.8748 4.7722L13.3498 6.87842C13.0036 6.79216 12.6481 6.71078 12.2948 6.63014L12.8236 4.51004L11.5076 4.18188L10.9679 6.34436C10.6813 6.27911 10.4001 6.2146 10.127 6.14672L10.1285 6.13997L8.3126 5.68654L7.96231 7.09294C7.96231 7.09294 8.93929 7.31684 8.91866 7.33072C9.45197 7.46386 9.54835 7.81677 9.53223 8.09655L8.91791 10.5609C8.95466 10.5703 9.00229 10.5838 9.0548 10.6048C9.01092 10.5939 8.96404 10.5819 8.91566 10.5703L8.05457 14.0226C7.98931 14.1846 7.82392 14.4276 7.45113 14.3353C7.46426 14.3545 6.49403 14.0964 6.49403 14.0964L5.84033 15.6037L7.55389 16.0309C7.87267 16.1108 8.18508 16.1944 8.49262 16.2732L7.94768 18.4612L9.26295 18.7893L9.80263 16.6246C10.1619 16.7221 10.5107 16.8121 10.852 16.8969L10.3142 19.0515L11.6309 19.3796L12.1759 17.1958C14.4212 17.6207 16.1097 17.4493 16.8204 15.4185C17.3931 13.7833 16.7919 12.8401 15.6105 12.225C16.4708 12.0266 17.1189 11.4607 17.2918 10.2917ZM14.2832 14.5105C13.8763 16.1457 11.1231 15.2617 10.2306 15.04L10.9536 12.1414C11.8462 12.3641 14.7085 12.8052 14.2832 14.5105ZM14.6905 10.268C14.3192 11.7554 12.0277 10.9997 11.2844 10.8145L11.94 8.18543C12.6833 8.3707 15.0772 8.71649 14.6905 10.268Z" fill="white"/>
</svg>
