<svg width="185" height="24" viewBox="0 0 185 24" fill="none" xmlns="http://www.w3.org/2000/svg">
    <path d="M38.5954 17.093C38.5954 17.8604 38.8326 18.0279 39.2931 18.0279C39.7396 18.0279 39.9768 17.8604 39.9768 17.093V15.5023C39.9768 13.3814 36.3628 11.3162 36.3628 8.86043V6.71159C36.3628 4.74415 37.9117 4.17206 39.2791 4.17206C40.6745 4.17206 42.2233 4.74415 42.2233 6.71159V9.87904H39.9768V6.90694C39.9768 6.1395 39.7396 5.97206 39.2931 5.97206C38.8326 5.97206 38.5954 6.1395 38.5954 6.90694V8.76276C38.5954 9.83717 42.2093 13.1023 42.2093 14.6232V17.2883C42.2093 19.2558 40.6605 19.8279 39.2652 19.8279C37.8838 19.8279 36.3489 19.2558 36.3489 17.2883V13.8139H38.5954V17.093Z" fill="white"/>
    <path d="M53.1211 6.71159C53.1211 4.74415 54.6699 4.17206 56.0374 4.17206C57.4327 4.17206 58.9816 4.74415 58.9816 6.71159V17.2883C58.9816 19.2558 57.4327 19.8279 56.0374 19.8279C54.656 19.8279 53.1211 19.2558 53.1211 17.2883V6.71159ZM55.3676 17.093C55.3676 17.8604 55.6048 18.0279 56.0653 18.0279C56.5118 18.0279 56.749 17.8604 56.749 17.093V6.90694C56.749 6.1395 56.5118 5.97206 56.0653 5.97206C55.6048 5.97206 55.3676 6.1395 55.3676 6.90694V17.093Z" fill="white"/>
    <path d="M75.7116 4.46506V6.4325H73.7721V19.5348H71.5255V6.4325H69.5581V4.46506H75.7116Z" fill="white"/>
    <path d="M86.3582 19.5348V4.46506H91.3535V6.4325H88.6047V10.2976H91.2558V12.279H88.6047V17.5674H91.3954V19.5348H86.3582Z" fill="white"/>
    <path d="M101.916 19.5348V4.46506H104.874C106.674 4.46506 107.777 5.09296 107.777 7.04645V9.18134C107.777 10.2976 107.456 11.2325 105.558 11.4418V11.4837C106.549 11.6092 107.609 11.9441 107.693 13.3255C107.819 15.3348 107.693 17.4558 108.056 19.5209H105.809C105.433 17.7906 105.53 15.5162 105.53 13.772C105.53 12.8651 105.195 12.5023 104.149 12.5441V19.5209H101.916V19.5348ZM104.149 10.7162H104.567C105.349 10.7162 105.516 10.2976 105.516 9.73948V7.00459C105.516 6.4325 105.181 6.26506 104.665 6.26506H104.135V10.7162H104.149Z" fill="white"/>
    <path d="M118.73 19.5348V4.46506H120.977V19.5348H118.73Z" fill="white"/>
    <path d="M133.2 4.46506H136.563L138.279 19.5348H136.019L135.6 15.4465H134.009L133.521 19.5348H131.484L133.2 4.46506ZM135.377 13.479L134.916 7.21389H134.763L134.219 13.479H135.377Z" fill="white"/>
    <path d="M12 24C18.6274 24 24 18.6274 24 12C24 5.37258 18.6274 0 12 0C5.37258 0 0 5.37258 0 12C0 18.6274 5.37258 24 12 24Z" fill="white"/>
    <path d="M14.1767 13.2837L13.6883 12.8232L14.7209 11.7349L13.9116 10.9674L12.879 12.0558L11.8883 11.1209L12.9209 10.0326L12.1116 9.26511L11.079 10.3535L10.5907 9.90697C9.71159 9.08371 9.66973 7.68836 10.5069 6.8093C11.3302 5.93023 12.7255 5.88836 13.6046 6.72557L14.5953 7.66046L15.3488 6.8372L14.3581 5.90232C13.0325 4.6465 10.9395 4.71627 9.68368 6.04185C8.42787 7.36743 8.49763 9.46046 9.82322 10.7163L10.3116 11.1767L9.27903 12.2651L10.0883 13.0326L11.1209 11.9442L12.1116 12.8791L11.079 13.9674L11.8883 14.7349L12.9209 13.6465L13.4093 14.107C14.2883 14.9302 14.3302 16.3256 13.493 17.2046C12.6697 18.0837 11.2744 18.1256 10.3953 17.2884L9.40461 16.3535L8.65112 17.1628L9.64182 18.0977C10.2837 18.6977 11.093 18.9907 11.9023 18.9907C12.7814 18.9907 13.6604 18.6419 14.3023 17.9581C14.9023 17.3163 15.2232 16.4791 15.1953 15.6C15.1814 14.707 14.8186 13.8837 14.1767 13.2837Z" fill="#1E2326"/>
    <rect x="154" y="4" width="31" height="16" rx="2" fill="white"/>
    <path d="M159.67 7.86V15H160.52V14.31H160.54C160.633 14.4633 160.747 14.5933 160.88 14.7C161.02 14.8 161.167 14.88 161.32 14.94C161.473 15 161.627 15.0433 161.78 15.07C161.94 15.0967 162.083 15.11 162.21 15.11C162.603 15.11 162.947 15.04 163.24 14.9C163.54 14.76 163.787 14.57 163.98 14.33C164.18 14.0833 164.327 13.7967 164.42 13.47C164.52 13.1433 164.57 12.7967 164.57 12.43C164.57 12.0633 164.52 11.7167 164.42 11.39C164.32 11.0633 164.17 10.7767 163.97 10.53C163.777 10.2767 163.53 10.0767 163.23 9.93C162.937 9.78333 162.59 9.71 162.19 9.71C161.83 9.71 161.5 9.77667 161.2 9.91C160.9 10.0367 160.68 10.2433 160.54 10.53H160.52V7.86H159.67ZM163.67 12.37C163.67 12.6233 163.643 12.87 163.59 13.11C163.537 13.35 163.45 13.5633 163.33 13.75C163.21 13.9367 163.05 14.0867 162.85 14.2C162.657 14.3133 162.413 14.37 162.12 14.37C161.827 14.37 161.577 14.3167 161.37 14.21C161.163 14.0967 160.993 13.95 160.86 13.77C160.733 13.59 160.64 13.3833 160.58 13.15C160.52 12.91 160.49 12.6633 160.49 12.41C160.49 12.17 160.517 11.9333 160.57 11.7C160.63 11.4667 160.723 11.26 160.85 11.08C160.977 10.8933 161.14 10.7433 161.34 10.63C161.54 10.5167 161.783 10.46 162.07 10.46C162.343 10.46 162.58 10.5133 162.78 10.62C162.987 10.7267 163.153 10.87 163.28 11.05C163.413 11.23 163.51 11.4367 163.57 11.67C163.637 11.8967 163.67 12.13 163.67 12.37ZM169.558 11.92H166.588C166.601 11.72 166.644 11.5333 166.718 11.36C166.791 11.18 166.891 11.0233 167.018 10.89C167.144 10.7567 167.294 10.6533 167.468 10.58C167.648 10.5 167.848 10.46 168.068 10.46C168.281 10.46 168.474 10.5 168.648 10.58C168.828 10.6533 168.981 10.7567 169.108 10.89C169.241 11.0167 169.344 11.17 169.418 11.35C169.498 11.53 169.544 11.72 169.558 11.92ZM170.378 13.36H169.538C169.464 13.7 169.311 13.9533 169.078 14.12C168.851 14.2867 168.558 14.37 168.198 14.37C167.918 14.37 167.674 14.3233 167.468 14.23C167.261 14.1367 167.091 14.0133 166.958 13.86C166.824 13.7 166.728 13.52 166.668 13.32C166.608 13.1133 166.581 12.8967 166.588 12.67H170.458C170.471 12.3567 170.441 12.0267 170.368 11.68C170.301 11.3333 170.174 11.0133 169.988 10.72C169.808 10.4267 169.564 10.1867 169.258 10C168.958 9.80667 168.578 9.71 168.118 9.71C167.764 9.71 167.438 9.77667 167.138 9.91C166.844 10.0433 166.588 10.23 166.368 10.47C166.154 10.71 165.988 10.9933 165.868 11.32C165.748 11.6467 165.688 12.0067 165.688 12.4C165.701 12.7933 165.758 13.1567 165.858 13.49C165.964 13.8233 166.121 14.11 166.328 14.35C166.534 14.59 166.788 14.7767 167.088 14.91C167.394 15.0433 167.754 15.11 168.168 15.11C168.754 15.11 169.241 14.9633 169.628 14.67C170.014 14.3767 170.264 13.94 170.378 13.36ZM172.919 9.83V8.28H172.069V9.83H171.189V10.58H172.069V13.87C172.069 14.11 172.092 14.3033 172.139 14.45C172.185 14.5967 172.255 14.71 172.349 14.79C172.449 14.87 172.575 14.9267 172.729 14.96C172.889 14.9867 173.079 15 173.299 15H173.949V14.25H173.559C173.425 14.25 173.315 14.2467 173.229 14.24C173.149 14.2267 173.085 14.2033 173.039 14.17C172.992 14.1367 172.959 14.09 172.939 14.03C172.925 13.97 172.919 13.89 172.919 13.79V10.58H173.949V9.83H172.919ZM179.873 14.98C179.726 15.0667 179.523 15.11 179.263 15.11C179.043 15.11 178.866 15.05 178.733 14.93C178.606 14.8033 178.543 14.6 178.543 14.32C178.31 14.6 178.036 14.8033 177.723 14.93C177.416 15.05 177.083 15.11 176.723 15.11C176.49 15.11 176.266 15.0833 176.053 15.03C175.846 14.9767 175.666 14.8933 175.513 14.78C175.36 14.6667 175.236 14.52 175.143 14.34C175.056 14.1533 175.013 13.93 175.013 13.67C175.013 13.3767 175.063 13.1367 175.163 12.95C175.263 12.7633 175.393 12.6133 175.553 12.5C175.72 12.38 175.906 12.29 176.113 12.23C176.326 12.17 176.543 12.12 176.763 12.08C176.996 12.0333 177.216 12 177.423 11.98C177.636 11.9533 177.823 11.92 177.983 11.88C178.143 11.8333 178.27 11.77 178.363 11.69C178.456 11.6033 178.503 11.48 178.503 11.32C178.503 11.1333 178.466 10.9833 178.393 10.87C178.326 10.7567 178.236 10.67 178.123 10.61C178.016 10.55 177.893 10.51 177.753 10.49C177.62 10.47 177.486 10.46 177.353 10.46C176.993 10.46 176.693 10.53 176.453 10.67C176.213 10.8033 176.083 11.06 176.063 11.44H175.213C175.226 11.12 175.293 10.85 175.413 10.63C175.533 10.41 175.693 10.2333 175.893 10.1C176.093 9.96 176.32 9.86 176.573 9.8C176.833 9.74 177.11 9.71 177.403 9.71C177.636 9.71 177.866 9.72667 178.093 9.76C178.326 9.79333 178.536 9.86333 178.723 9.97C178.91 10.07 179.06 10.2133 179.173 10.4C179.286 10.5867 179.343 10.83 179.343 11.13V13.79C179.343 13.99 179.353 14.1367 179.373 14.23C179.4 14.3233 179.48 14.37 179.613 14.37C179.686 14.37 179.773 14.3533 179.873 14.32V14.98ZM178.493 12.33C178.386 12.41 178.246 12.47 178.073 12.51C177.9 12.5433 177.716 12.5733 177.523 12.6C177.336 12.62 177.146 12.6467 176.953 12.68C176.76 12.7067 176.586 12.7533 176.433 12.82C176.28 12.8867 176.153 12.9833 176.053 13.11C175.96 13.23 175.913 13.3967 175.913 13.61C175.913 13.75 175.94 13.87 175.993 13.97C176.053 14.0633 176.126 14.14 176.213 14.2C176.306 14.26 176.413 14.3033 176.533 14.33C176.653 14.3567 176.78 14.37 176.913 14.37C177.193 14.37 177.433 14.3333 177.633 14.26C177.833 14.18 177.996 14.0833 178.123 13.97C178.25 13.85 178.343 13.7233 178.403 13.59C178.463 13.45 178.493 13.32 178.493 13.2V12.33Z" fill="#1E2326"/>
</svg>
