<svg width="25" height="25" viewBox="0 0 25 25" fill="none" xmlns="http://www.w3.org/2000/svg">
    <path d="M12.0014 24.0028C18.6296 24.0028 24.0028 18.6296 24.0028 12.0014C24.0028 5.37321 18.6296 0 12.0014 0C5.37321 0 0 5.37321 0 12.0014C0 18.6296 5.37321 24.0028 12.0014 24.0028Z" fill="#1E2326"/>
    <path d="M14.175 13.2882L13.6883 12.8282L14.7151 11.7414L13.9083 10.9746L12.8815 12.0614L11.8947 11.128L12.9215 10.0412L12.1148 9.27445L11.088 10.3612L10.6013 9.90119C9.72116 9.07442 9.68116 7.68093 10.5146 6.80749C11.3347 5.93406 12.7215 5.89405 13.6016 6.72082L14.5884 7.64759L15.3552 6.84083L14.3684 5.91405C13.0415 4.66058 10.948 4.72725 9.70116 6.0474C8.44768 7.37422 8.51436 9.4678 9.83451 10.7146L10.3212 11.1747L9.29445 12.2615L10.1012 13.0282L11.128 11.9414L12.1148 12.8749L11.088 13.9617L11.8947 14.7284L12.9215 13.6416L13.4083 14.1017C14.2884 14.9284 14.3284 16.3219 13.4949 17.1954C12.6682 18.0755 11.2747 18.1155 10.4012 17.282L9.41446 16.3553L8.64771 17.162L9.63449 18.0888C10.2746 18.6889 11.088 18.9889 11.9014 18.9889C12.7815 18.9889 13.655 18.6422 14.3084 17.9555C14.9151 17.3154 15.2285 16.4753 15.2018 15.5952C15.1818 14.7084 14.8151 13.8883 14.175 13.2882Z" fill="white"/>
</svg>
